<?xml version="1.0" standalone="yes"?>
<svg xmlns="http://www.w3.org/2000/svg" width="512" height="512">
<path style="fill:#040304; stroke:none;" d="M0 0L0 512L512 512L512 0L0 0z"/>
<path style="fill:#ad3638; stroke:none;" d="M177 74L177 75L183 75L177 74z"/>
<path style="fill:#e94343; stroke:none;" d="M141 197C141 171.693 133.565 134.152 152.093 114C163.329 101.779 182.983 93.058 200 97.3179C205.382 98.665 208.437 104.115 214 105.467C222.32 107.489 232.467 106 241 106C258.868 106 278.297 108.177 296 105.812C302.695 104.917 305.876 98.1482 312.039 97.1481C337.567 93.006 365.013 109.099 370.192 135C374.08 154.442 371 177.184 371 197C360.549 198.666 363 208.67 363 217L363 278C363 283.655 360.072 300.696 367.109 302.682C370.406 303.613 374.601 303.038 378 302.996C410.537 302.597 406 267.546 406 245C406 236.204 407.63 225.51 405.211 217C403.333 210.391 396.649 205.781 396.059 199C392.677 160.13 405.832 116.965 370 89.0154C364.29 84.5615 357.771 80.9814 351 78.4251C332.585 71.4734 310.367 74 291 74L215 74C183.315 74 150.586 74.3846 129.04 102.015C107.529 129.601 118.722 166.922 115.941 199C115.32 206.166 108.17 210.89 106.529 218C103.973 229.077 106 242.65 106 254C106 271.655 102.953 292.67 123 300.906C128.029 302.972 142.904 305.844 147.258 301.397C151.1 297.472 149 286.089 149 281L149 224C149 214.782 152.888 198.895 141 197z"/>
<path style="fill:#ad3638; stroke:none;" d="M328 74L328 75L334 75L328 74M172 75L172 76L175 76L172 75M337.667 75.3333L338.333 75.6667L337.667 75.3333M168.667 76.3333L169.333 76.6667L168.667 76.3333M164.667 77.3333L165.333 77.6667L164.667 77.3333M162 78L163 79L162 78M159.667 79.3333L160.333 79.6667L159.667 79.3333M157 80L158 81L157 80M155 81L156 82L155 81M153 82L154 83L153 82z"/>
<path style="fill:#cf9f77; stroke:none;" d="M359 82L360 83L359 82z"/>
<path style="fill:#ad3638; stroke:none;" d="M151 83L152 84L151 83M149 84L150 85L149 84M148 85L149 86L148 85M146 86L147 87L146 86M145 87L146 88L145 87M143 88L144 89L143 88M142 89L143 90L142 89M141 90L142 91L141 90M140 91L141 92L140 91M136 94L137 95L136 94M135 95L136 96L135 95M134 96L135 97L134 96M183 97L183 98C193.749 98 200 97.7664 209 104C202.542 94.9404 192.995 97 183 97M308 97L308 98L329 98L308 97M177 98L177 99L180 99L177 98z"/>
<path style="fill:#040304; stroke:none;" d="M141 197L149 198C152.149 174.728 172.631 155.438 195 150.425C213.281 146.329 234.317 149 253 149L364 149L364 198L370 197C370 171.013 377.746 132.276 357.96 112.015C346.873 100.662 325.951 94.0296 310.17 98.3171C304.919 99.7437 301.642 104.972 296 106.316C288.45 108.115 279.721 107 272 107C254.397 107 235.461 108.996 218 106.815C211.017 105.942 207.345 99.8981 201 98.3179C177.048 92.3531 149.168 107.083 142.757 131C137.327 151.256 141 176.133 141 197z"/>
<path style="fill:#ad3638; stroke:none;" d="M331 98L331 99L335 99L331 98M173 99L173 100L176 100L173 99M307 99L308 100L307 99M336.667 99.3333L337.333 99.6667L336.667 99.3333z"/>
<path style="fill:#cf9f77; stroke:none;" d="M130 100L131 101L130 100z"/>
<path style="fill:#ad3638; stroke:none;" d="M170.667 100.333L171.333 100.667L170.667 100.333M306 100L307 101L306 100M339.667 100.333L340.333 100.667L339.667 100.333M168 101L169 102L168 101M305 101L306 102L305 101M342.667 101.333L343.333 101.667L342.667 101.333M166 102L167 103L166 102M304 102L305 103L304 102M344.667 102.333L345.333 102.667L344.667 102.333M164 103L165 104L164 103M302 103L303 104L302 103M346.667 103.333L347.333 103.667L346.667 103.333M162 104L163 105L162 104M210 104L211 105L210 104M301 104L302 105L301 104M348 104L349 105L348 104M161 105L162 106L161 105M212.667 105.333L213.333 105.667L212.667 105.333M298.667 105.333L299.333 105.667L298.667 105.333M350 105L351 106L350 105M159 106L160 107L159 106M215 106L215 107L296 107L271 106L215 106M351 106L352 107L351 106M158 107L159 108L158 107M353 107L354 108L353 107M157 108L158 109L157 108M354 108L355 109L354 108M156 109L157 110L156 109M355 109L356 110L355 109M356 110L357 111L356 110M357 111L358 112L357 111M358 112L359 113L358 112M359 113L360 114L359 113M151 114L152 115L151 114M360 114L361 115L360 114M150 115L151 116L150 115M361 115L362 116L361 115M149 116L150 117L149 116M362 117L363 118L362 117M148 118L149 119L148 118M363 118L364 119L363 118z"/>
<path style="fill:#cf9f77; stroke:none;" d="M391 118L392 119L391 118z"/>
<path style="fill:#ad3638; stroke:none;" d="M147 119L148 120L147 119M364 120L365 121L364 120M146 121L147 122L146 121M365.333 121.667L365.667 122.333L365.333 121.667M145 123L146 124L145 123M366.333 123.667L366.667 124.333L366.333 123.667M144 125L145 126L144 125M367 126L368 127L367 126M143.333 127.667L143.667 128.333L143.333 127.667M368.333 128.667L368.667 129.333L368.333 128.667M142.333 130.667L142.667 131.333L142.333 130.667M369 131L369 134L370 134L369 131M141 134L141 138L142 138L141 134M370 136L370 197L371 197L371 156L370 136M199 149L199 150L202 150L199 149z"/>
<path style="fill:#cf9f77; stroke:none;" d="M202 149L202 150L363 150L363 200L364 200L364 149L202 149z"/>
<path style="fill:#ad3638; stroke:none;" d="M194 150L195 151L194 150z"/>
<path style="fill:#cf9f77; stroke:none;" d="M195 150L195 151L198 151L195 150z"/>
<path style="fill:#dfb38b; stroke:none;" d="M363 150L246 150C227.273 150 204.815 146.6 187 153.229C135.585 172.361 149 237.703 149 281C149 306.405 145.025 327.376 164.59 347.714C191.035 375.202 238.595 365 273 365C303.567 365 335.001 368.797 354.301 339C367.031 319.346 363 298.096 363 276L363 150z"/>
<path style="fill:#ad3638; stroke:none;" d="M190 151L191 152L190 151z"/>
<path style="fill:#cf9f77; stroke:none;" d="M191.667 151.333L192.333 151.667L191.667 151.333z"/>
<path style="fill:#ad3638; stroke:none;" d="M187 152L188 153L187 152z"/>
<path style="fill:#cf9f77; stroke:none;" d="M188 152L189 153L188 152z"/>
<path style="fill:#ad3638; stroke:none;" d="M185 153L186 154L185 153z"/>
<path style="fill:#cf9f77; stroke:none;" d="M186 153L187 154L186 153z"/>
<path style="fill:#ad3638; stroke:none;" d="M182 154L183 155L182 154z"/>
<path style="fill:#cf9f77; stroke:none;" d="M183 154L184 155L183 154z"/>
<path style="fill:#ad3638; stroke:none;" d="M180 155L181 156L180 155z"/>
<path style="fill:#cf9f77; stroke:none;" d="M181 155L182 156L181 155z"/>
<path style="fill:#ad3638; stroke:none;" d="M178 156L179 157L178 156z"/>
<path style="fill:#cf9f77; stroke:none;" d="M179 156L180 157L179 156M177 157L178 158L177 157z"/>
<path style="fill:#ad3638; stroke:none;" d="M175 158L176 159L175 158z"/>
<path style="fill:#cf9f77; stroke:none;" d="M176 158L177 159L176 158M174 159L175 160L174 159z"/>
<path style="fill:#ad3638; stroke:none;" d="M172 160L173 161L172 160z"/>
<path style="fill:#cf9f77; stroke:none;" d="M173 160L174 161L173 160z"/>
<path style="fill:#ad3638; stroke:none;" d="M171 161L172 162L171 161z"/>
<path style="fill:#cf9f77; stroke:none;" d="M170 162L171 163L170 162z"/>
<path style="fill:#ad3638; stroke:none;" d="M168 163L169 164L168 163z"/>
<path style="fill:#cf9f77; stroke:none;" d="M169 163L170 164L169 163z"/>
<path style="fill:#ad3638; stroke:none;" d="M167 164L168 165L167 164M166 165L167 166L166 165M165 166L166 167L165 166M164 167L165 168L164 167M163 168L164 169L163 168M162 169L163 170L162 169z"/>
<path style="fill:#cf9f77; stroke:none;" d="M162 170L163 171L162 170M161 171L162 172L161 171M160 172L161 173L160 172z"/>
<path style="fill:#ad3638; stroke:none;" d="M159 173L160 174L159 173M158 174L159 175L158 174z"/>
<path style="fill:#cf9f77; stroke:none;" d="M158 175L159 176L158 175z"/>
<path style="fill:#ad3638; stroke:none;" d="M157 176L158 177L157 176z"/>
<path style="fill:#cf9f77; stroke:none;" d="M156 178L157 179L156 178z"/>
<path style="fill:#ad3638; stroke:none;" d="M155 179L156 180L155 179z"/>
<path style="fill:#cf9f77; stroke:none;" d="M155 180L156 181L155 180z"/>
<path style="fill:#ad3638; stroke:none;" d="M154 181L155 182L154 181z"/>
<path style="fill:#cf9f77; stroke:none;" d="M154 182L155 183L154 182z"/>
<path style="fill:#ad3638; stroke:none;" d="M153 183L154 184L153 183z"/>
<path style="fill:#cf9f77; stroke:none;" d="M153 184L154 185L153 184z"/>
<path style="fill:#ad3638; stroke:none;" d="M152 185L153 186L152 185z"/>
<path style="fill:#cf9f77; stroke:none;" d="M152 186L153 187L152 186z"/>
<path style="fill:#ad3638; stroke:none;" d="M151 188L152 189L151 188z"/>
<path style="fill:#cf9f77; stroke:none;" d="M151 189L152 190L151 189z"/>
<path style="fill:#ad3638; stroke:none;" d="M150.333 190.667L150.667 191.333L150.333 190.667z"/>
<path style="fill:#cf9f77; stroke:none;" d="M150 192L151 193L150 192z"/>
<path style="fill:#ad3638; stroke:none;" d="M149 194L150 195L149 194z"/>
<path style="fill:#cf9f77; stroke:none;" d="M149.333 195.667L149.667 196.333L149.333 195.667z"/>
<path style="fill:#ad3638; stroke:none;" d="M144.667 197.333L145.333 197.667L144.667 197.333M366.667 197.333L367.333 197.667L366.667 197.333M147 198L149 200L149 198L147 198M364 198L365 199L364 198z"/>
<path style="fill:#cf9f77; stroke:none;" d="M110 209L111 210L110 209M251.015 234.742C239.327 239.351 241.071 281.691 259.995 273.99C272.913 268.733 271.394 226.707 251.015 234.742M148 300L149 301L148 300M363 300L364 301L363 300M159 341L160 342L159 341M164 347L165 348L164 347M341 352L342 353L341 352M188 362L189 363L188 362M219 365L219 419C219 426.042 217.081 436.542 220.318 442.985C223.511 449.34 229.88 449 236 449L274 449C279.46 449 286.628 449.97 290.258 444.867C294.109 439.451 292 428.351 292 422L292 365L219 365z"/>
<path style="fill:#dfb38b; stroke:none;" d="M285 448L286 449L285 448z"/>
</svg>
