<?xml version="1.0" standalone="no"?>
<!DOCTYPE svg PUBLIC "-//W3C//DTD SVG 20010904//EN"
 "http://www.w3.org/TR/2001/REC-SVG-20010904/DTD/svg10.dtd">
<svg version="1.0" xmlns="http://www.w3.org/2000/svg"
 width="613.000000pt" height="647.000000pt" viewBox="0 0 613.000000 647.000000"
 preserveAspectRatio="xMidYMid meet">
<metadata>
Created by potrace 1.16, written by Peter Selinger 2001-2019
</metadata>
<g transform="translate(0.000000,647.000000) scale(0.100000,-0.100000)"
fill="#000000" stroke="none">
<path d="M2880 6463 c-247 -14 -562 -77 -810 -161 -761 -260 -1411 -839 -1761
-1567 -139 -290 -222 -561 -276 -905 -15 -93 -18 -174 -18 -425 1 -271 3 -328
23 -452 201 -1276 1146 -2277 2400 -2543 227 -48 372 -63 622 -63 225 -1 314
7 530 44 504 87 981 302 1390 625 142 112 414 393 527 544 546 730 742 1632
546 2520 -33 153 -128 436 -196 585 -306 675 -851 1222 -1521 1527 -448 204
-960 299 -1456 271z m-561 -1060 c52 -63 71 -131 82 -288 12 -196 14 -180 -21
-154 -28 21 -33 22 -87 10 -129 -29 -203 -80 -206 -143 -2 -29 1 -33 26 -36
19 -2 42 7 76 32 144 106 217 100 265 -21 15 -37 60 -126 101 -198 175 -311
230 -454 255 -661 10 -86 2 -221 -16 -269 -8 -19 -318 -186 -448 -241 -118
-51 -171 -56 -209 -21 -21 18 -27 37 -35 105 -8 71 -15 89 -38 113 -21 21 -24
29 -12 29 9 0 50 18 92 39 l76 39 -44 15 c-24 8 -74 36 -111 61 -37 25 -76 46
-86 46 -26 0 -24 13 7 49 18 22 24 40 22 63 -3 30 -9 36 -70 65 -68 32 -148
101 -148 127 0 8 22 28 49 45 67 44 158 141 183 198 32 72 34 167 8 319 -35
200 -19 353 51 504 16 35 41 79 55 98 31 39 120 112 139 112 8 0 27 -17 44
-37z m940 -677 c99 -52 164 -219 140 -364 -13 -82 -45 -146 -108 -213 -47 -50
-50 -52 -51 -29 -1 86 -53 211 -146 352 -73 112 -73 118 -24 186 55 76 125
101 189 68z m-378 -2155 l23 -19 -24 -148 -23 -149 -57 -37 c-80 -52 -212
-171 -293 -261 -72 -81 -106 -96 -127 -58 -21 40 -9 72 78 209 82 132 89 140
134 156 59 21 82 52 109 152 26 97 49 137 92 158 42 20 60 20 88 -3z"/>
<path d="M2125 4730 c-5 -8 46 -57 90 -86 22 -14 25 -24 25 -75 0 -52 2 -59
20 -59 21 0 50 45 50 79 0 20 4 20 78 15 l77 -5 -80 29 c-44 16 -109 44 -145
63 -76 39 -108 50 -115 39z"/>
<path d="M1440 156 l0 -86 43 0 c57 0 87 30 87 87 0 51 -24 74 -85 80 l-45 6
0 -87z"/>
</g>
</svg>
