<?xml version="1.0" standalone="yes"?>
<svg xmlns="http://www.w3.org/2000/svg" width="512" height="512">
<path style="fill:#1c1c2f; stroke:none;" d="M0 0L0 512L234 512L234 511C203.991 510.917 172.494 499.496 146 486.247C11.9946 419.236 -29.7164 243.689 57.4244 123C73.7589 100.377 93.925 80.6965 117 65L119 84C116.325 83.6087 109.914 80.988 109.121 85.1628C106.823 97.2619 122.563 114.536 128.006 124C131.219 129.587 131.196 136.826 132.654 143C135.33 154.328 139.757 165.217 140 177L150 179C152.532 168.054 159.824 159.035 161.561 148C163.346 136.657 156.357 113.876 167.133 105.474C171.015 102.447 175.095 105.004 179 106.55C187.71 109.999 196.861 112.56 206 114.576C235.58 121.1 267.598 118.358 296 107.947C306.094 104.247 327.965 88.4688 337.996 94.7423C358.343 107.467 351.112 130.904 354.326 150C355.94 159.595 362.486 169.822 366 179L378 177C379.398 144.445 400.155 110.321 383.215 78C377.131 66.3911 367.147 63.7368 358.015 55.787C352.669 51.1335 350.459 44.9476 347 39C433.746 74.5886 491.998 155.185 500.83 248C510.257 347.059 451.704 443.4 364 487.247C338.255 500.118 307.114 510.92 278 511L278 512L512 512L512 0L0 0z"/>
<path style="fill:#fab481; stroke:none;" d="M315 11L316 12L315 11M346 37L347 38L346 37z"/>
<path style="fill:#fe4155; stroke:none;" d="M347 39C355.334 59.0443 376.745 63.1474 385.124 83C398.495 114.68 378.645 145.738 378 177C403.352 182.116 383.504 214.921 380.601 229C379.448 234.592 378.095 239.737 373.895 243.891C371.044 246.711 365.876 247.716 365.148 252.058C363.633 261.094 366.368 271.693 365.961 281C364.56 312.989 361.199 353.032 342 380L342 381C350.457 385.9 360.805 385.151 370 388.344C387.102 394.282 403.279 402.693 419 411.576C424.561 414.717 438.32 425.446 444.91 422.787C452.034 419.913 457.939 407.155 461.997 401C477.492 377.497 488.24 351.302 494.87 324C516.97 233.003 483.052 133.843 410 75.3997C391.821 60.8561 369.659 45.4774 347 39z"/>
<path style="fill:#fab481; stroke:none;" d="M390 61L391 62L390 61z"/>
<path style="fill:#fe4155; stroke:none;" d="M116 65C28.4631 124.546 -11.2206 241.346 22.0008 342C29.2699 364.024 39.1314 384.69 52 404C55.7795 409.672 61.2231 421.052 68.0394 423.357C76.799 426.32 90.7758 414.698 98 410.769C115.275 401.375 133.053 391.668 152 386.029C159.116 383.912 166.719 384.051 174 382C151.71 339.637 147.282 292.114 151 245L150 245L150 248C144.447 246.88 140.269 243.047 137.684 238C135.301 233.345 135.182 227.933 133.652 223C129.592 209.906 114.082 178.419 140 177C139.899 164.83 135.415 153.686 132.654 142C131.196 135.826 131.219 128.587 128.006 123C122.609 113.616 107.557 97.3391 109.364 85.3843C109.931 81.6325 116.578 83.7971 119 84L116 65z"/>
<path style="fill:#ff2020; stroke:none;" d="M103 74L104 75L103 74z"/>
<path style="fill:#fab481; stroke:none;" d="M408 74L409 75L408 74M90 85L91 86L90 85z"/>
<path style="fill:#ff2020; stroke:none;" d="M421 85L422 86L421 85z"/>
<path style="fill:#fe4155; stroke:none;" d="M327 93L328 94L327 93z"/>
<path style="fill:#fab481; stroke:none;" d="M150 179C146.334 178.162 142.804 177.01 139 177.03C113.481 177.165 129.992 212.196 133.652 224C136.701 233.833 137.089 246.562 150 248L152 224L153 224C159.317 246.426 167.158 272.194 190 283C202.864 264.09 219.747 253.197 243 257.224C249.31 258.316 254.238 262.706 261 262.656C267.397 262.609 271.992 258.024 278 257.144C298.686 254.113 318.208 262.331 329 281C347.014 274.021 361.156 243.464 362 225L363 225L365 249C379.407 244.781 378.909 233.179 383.004 221C387.12 208.756 401.197 176.712 376 177.019C372.189 177.065 368.68 178.159 365 179C364.16 168.726 357.54 161.532 354.928 152C350.393 135.451 360.064 99.0319 335 93.3951C324.83 91.1079 311.246 101.73 302 105.399C282.304 113.213 261.225 118 240 118C222.404 118 204.639 115.556 188 109.565C182.715 107.662 172.458 101.105 167.144 104.758C156.411 112.135 163.464 137.306 161.535 148C159.561 158.95 152.283 167.967 150 179z"/>
<path style="fill:#fe4155; stroke:none;" d="M336 93L337 94L336 93M325 94L326 95L325 94M338 94L339 95L338 94M343 99L344 100L343 99z"/>
<path style="fill:#ff2020; stroke:none;" d="M74 101L75 102L74 101z"/>
<path style="fill:#fe4155; stroke:none;" d="M311 101L312 102L311 101z"/>
<path style="fill:#fab481; stroke:none;" d="M437 101L438 102L437 101z"/>
<path style="fill:#fe4155; stroke:none;" d="M309 102L310 103L309 102M346 103L347 104L346 103M174 104L175 105L174 104M304 104L305 105L304 104M299 106L300 107L299 106M349 108L350 109L349 108z"/>
<path style="fill:#ff2020; stroke:none;" d="M67 109L68 110L67 109z"/>
<path style="fill:#fe4155; stroke:none;" d="M187 109L188 110L187 109M163 110L164 111L163 110M190 110L191 111L190 110M350 110L351 111L350 110M284 111L285 112L284 111M197 112L198 113L197 112M201 113L202 114L201 113z"/>
<path style="fill:#ff2020; stroke:none;" d="M63 114L64 115L63 114z"/>
<path style="fill:#fe4155; stroke:none;" d="M205 114L206 115L205 114M272 114L273 115L272 114z"/>
<path style="fill:#ff2020; stroke:none;" d="M448 114L449 115L448 114z"/>
<path style="fill:#fe4155; stroke:none;" d="M210 115L211 116L210 115M267 115L268 116L267 115M162 116L163 117L162 116M216 116L217 117L216 116M260 116L261 117L260 116M352 116L353 117L352 116M225.667 117.333L226.333 117.667L225.667 117.333M251.667 117.333L252.333 117.667L251.667 117.333M353 120L354 121L353 120M161 126L161 130L162 130L161 126z"/>
<path style="fill:#ff2020; stroke:none;" d="M50 132L51 133L50 132M461 132L462 133L461 132z"/>
<path style="fill:#fe4155; stroke:none;" d="M161.333 136.667L161.667 137.333L161.333 136.667M161 148L162 149L161 148M355 154L356 155L355 154M357 158L358 159L357 158M156 161L157 162L156 161M193 164L193 165L196 165L193 164z"/>
<path style="fill:#1c1c2f; stroke:none;" d="M175 184C179.901 180.948 184.275 177.085 190 175.61C206.823 171.273 225.555 180.785 242 183C240.114 169.009 230.132 168.539 218 166.59C201.073 163.87 177.053 160.636 175 184z"/>
<path style="fill:#fe4155; stroke:none;" d="M201.667 164.333L202.333 164.667L201.667 164.333M210 165L211 166L210 165M307.667 165.333L308.333 165.667L307.667 165.333z"/>
<path style="fill:#1c1c2f; stroke:none;" d="M276 183C292.506 181.652 310.229 171.43 327 175.055C333.361 176.429 337.795 180.445 343 184C341.772 160.321 314.539 164.071 298 166.754C292.704 167.613 284.459 167.824 280.279 171.514C277.128 174.294 276.529 179.073 276 183z"/>
<path style="fill:#fe4155; stroke:none;" d="M329 165L330 166L329 165M185 166L186 167L185 166M217 166L218 167L217 166M299 166L300 167L299 166M153 167L154 168L153 167M223 167L224 168L223 167M293 167L294 168L293 167M182 168L183 169L182 168M228 168L229 169L228 168M288 168L289 169L288 168M335 168L336 169L335 168M362 168L363 169L362 168M233 169L234 170L233 169M236 170L237 171L236 170M179 171L180 172L179 171M338 171L339 172L338 171z"/>
<path style="fill:#fab481; stroke:none;" d="M28 174L29 175L28 174z"/>
<path style="fill:#fe4155; stroke:none;" d="M177 174L178 175L177 174M321 174L321 175L325 175L321 174M340 174L341 175L340 174M364 174L365 175L364 174z"/>
<path style="fill:#fab481; stroke:none;" d="M483 174L484 175L483 174z"/>
<path style="fill:#fe4155; stroke:none;" d="M189 175L190 176L189 175M204 175L205 176L204 175M311.667 175.333L312.333 175.667L311.667 175.333M329 175L330 176L329 175M150 176L151 177L150 176M176 176L177 177L176 176M212 176L213 177L212 176M305 176L306 177L305 176M341 176L342 177L341 176M144 177L145 178L144 177M184 177L185 178L184 177M217 177L218 178L217 177M334 177L335 178L334 177M147 178L148 179L147 178M182 178L183 179L182 178M222 178L223 179L222 178M365 178L366 179L365 178z"/>
<path style="fill:#ff2020; stroke:none;" d="M26 179L27 180L26 179z"/>
<path style="fill:#fe4155; stroke:none;" d="M175 179L176 180L175 179M241 179L242 180L241 179M292 179L293 180L292 179z"/>
<path style="fill:#ff2020; stroke:none;" d="M485 179L486 180L485 179z"/>
<path style="fill:#fe4155; stroke:none;" d="M288 180L289 181L288 180M178 181L179 182L178 181M284 181L285 182L284 181M238 182L239 183L238 182M280 182L281 183L280 182M174 183L175 184L174 183M343 183L344 184L343 183z"/>
<path style="fill:#1c1c2f; stroke:none;" d="M204.108 191.573C197.919 193.56 198.262 202.496 201.854 206.697C205.083 210.472 213.54 211.1 217.981 209.397C222.978 207.481 226.314 198.888 222.397 194.513C218.832 190.533 208.874 190.042 204.108 191.573z"/>
<path style="fill:#fe4155; stroke:none;" d="M215 191L216 192L215 191M302 191L303 192L302 191z"/>
<path style="fill:#1c1c2f; stroke:none;" d="M303 191.468C294.648 193.049 290.307 202.372 298.225 208.397C301.347 210.773 307.336 210.417 310.996 209.656C317.339 208.337 322.074 198.968 317.258 193.514C314.161 190.007 307.11 190.689 303 191.468z"/>
<path style="fill:#fe4155; stroke:none;" d="M314 191L315 192L314 191M219 192L220 193L219 192z"/>
<path style="fill:#fef1e8; stroke:none;" d="M318 192C319.384 198.799 318.615 202.623 316 209L333 203L333 201L318 192M185 203L203 209C199.605 203.275 198.783 199.558 200 193C193.877 194.184 188.666 198.034 185 203z"/>
<path style="fill:#fe4155; stroke:none;" d="M296 193L297 194L296 193z"/>
<path style="fill:#fab481; stroke:none;" d="M318 194L319 195L318 194M199 195L200 196L199 195z"/>
<path style="fill:#fef1e8; stroke:none;" d="M224 195C225.008 201.137 222.893 204.725 220 210L241 206L241 205L224 195M278 205L299 210L294 195L278 205z"/>
<path style="fill:#fe4155; stroke:none;" d="M199 196L200 197L199 196z"/>
<path style="fill:#fab481; stroke:none;" d="M224 197L224 202L225 202L224 197M491 197L492 198L491 197M319 198L319 201L320 201L319 198M199.333 202.667L199.667 203.333L199.333 202.667M294.333 202.667L294.667 203.333L294.333 202.667z"/>
<path style="fill:#fe4155; stroke:none;" d="M223 203L224 204L223 203z"/>
<path style="fill:#fab481; stroke:none;" d="M318 203L319 204L318 203M18 204L19 205L18 204M223 204L224 205L223 204M493 204L494 205L493 204M200 205L201 206L200 205M295 205L296 206L295 205M317 205L318 206L317 205z"/>
<path style="fill:#fe4155; stroke:none;" d="M201 206L202 207L201 206z"/>
<path style="fill:#fab481; stroke:none;" d="M221 207L222 208L221 207M316 207L317 208L316 207M220 208L221 209L220 208z"/>
<path style="fill:#fe4155; stroke:none;" d="M206 209L207 210L206 209M312 209L313 210L312 209z"/>
<path style="fill:#fab481; stroke:none;" d="M14 222L15 223L14 222z"/>
<path style="fill:#ff2020; stroke:none;" d="M497 222L498 223L497 222z"/>
<path style="fill:#fe4155; stroke:none;" d="M152 224L154 226L152 224z"/>
<path style="fill:#1c1c2f; stroke:none;" d="M152 225C151.965 277.334 145.095 329.616 171.309 378C199.997 430.95 261.454 455.086 312 416.497C322.04 408.832 330.504 399.515 337.484 389C369.314 341.047 367.321 280.748 363 226L362 226C359.292 246.097 346.898 270.654 329 281C320.391 260.668 296.782 254.299 277 257.349C271.349 258.22 266.964 262.527 261 262.736C254.566 262.962 250.009 258.275 244 257.349C221.737 253.916 200.576 261.763 190 283C175.99 274.385 166.845 262.006 160.427 247C157.541 240.251 156.59 230.601 152 225z"/>
<path style="fill:#fe4155; stroke:none;" d="M362 225L363 226L362 225M363 227L363 231L364 231L363 227z"/>
<path style="fill:#fab481; stroke:none;" d="M498 228L499 229L498 228z"/>
<path style="fill:#fe4155; stroke:none;" d="M154 229L155 230L154 229M151.333 233.667L151.667 234.333L151.333 233.667M155 233L156 234L155 233M360 233L361 234L360 233z"/>
<path style="fill:#fab481; stroke:none;" d="M499 235L500 236L499 235z"/>
<path style="fill:#fe4155; stroke:none;" d="M156 236L157 237L156 236M359 236L360 237L359 236M364 238L364 242L365 242L364 238M157 239L158 240L157 239M358 239L359 240L358 239M158 242L159 243L158 242M357 242L358 243L357 242M160 247L161 248L160 247M355 247L356 248L355 247M224 256L225 257L224 256M294 256L295 257L294 256M220 257L221 258L220 257M238 257L238 258L241 258L238 257M274 257L275 258L274 257M280 257L280 258L283 258L280 257M299 257L300 258L299 257M217 258L218 259L217 258M247 258L248 259L247 258M273 258L274 259L273 258M307 260L308 261L307 260M253 261L254 262L253 261M267 261L268 262L267 261M309 261L310 262L309 261M348 261L349 262L348 261M257.667 262.333L258.333 262.667L257.667 262.333M263 262L264 263L263 262M169 264L170 265L169 264M346 264L347 265L346 264M202 267L203 268L202 267M172 268L173 269L172 268M343 268L344 269L343 268M196 273L197 274L196 273M326 276L327 277L326 276M193 277L194 278L193 277M182 278L183 279L182 278M185 280L186 281L185 280M258 288L259 289L258 288z"/>
<path style="fill:#fab481; stroke:none;" d="M215 299C220.248 328.531 260.514 340.381 285 324.867C294.465 318.869 299.303 307.158 303 297L279 292.869L261 288.51L245 292.335L215 299z"/>
<path style="fill:#fe4155; stroke:none;" d="M262 288L263 289L262 288z"/>
<path style="fill:#ff2020; stroke:none;" d="M11 289L12 290L11 289z"/>
<path style="fill:#fe4155; stroke:none;" d="M255 289L256 290L255 289M252 290L253 291L252 290M268 290L269 291L268 290M271 291L272 292L271 291M244 292L245 293L244 292M276 292L277 293L276 292M237 293L238 294L237 293M283 293L283 294L286 294L283 293M224 294L225 295L224 294M297 294L298 295L297 294M221 295L222 296L221 295M216 298L217 299L216 298M214 300L215 301L214 300M301 300L302 301L301 300M217 306L218 307L217 306M298 306L299 307L298 306z"/>
<path style="fill:#fab481; stroke:none;" d="M14 311L15 312L14 311z"/>
<path style="fill:#fe4155; stroke:none;" d="M296 311L297 312L296 311z"/>
<path style="fill:#fab481; stroke:none;" d="M497 311L498 312L497 311z"/>
<path style="fill:#fe4155; stroke:none;" d="M221 315L222 316L221 315M294 315L295 316L294 315z"/>
<path style="fill:#ff2020; stroke:none;" d="M15 316L16 317L15 316z"/>
<path style="fill:#fe4155; stroke:none;" d="M224 319L225 320L224 319M291 319L292 320L291 319M225 320L226 321L225 320M290 320L291 321L290 320M226 321L227 322L226 321M289 321L290 322L289 321M285 324L286 325L285 324z"/>
<path style="fill:#ff2020; stroke:none;" d="M17 325L18 326L17 325z"/>
<path style="fill:#fe4155; stroke:none;" d="M232 325L233 326L232 325M237 327L238 328L237 327M275 328L276 329L275 328M246 329L247 330L246 329M271 329L272 330L271 329z"/>
<path style="fill:#fab481; stroke:none;" d="M491 336L492 337L491 336z"/>
<path style="fill:#ff2020; stroke:none;" d="M26 354L27 355L26 354M485 354L486 355L485 354M28 359L29 360L28 359M483 359L484 360L483 359z"/>
<path style="fill:#fab481; stroke:none;" d="M480 366L481 367L480 366M342 381C324.071 410.189 292.553 437.938 256 437.289C236.852 436.95 216.49 426.839 202 414.916C190.608 405.542 181.697 394.531 174 382L162 385L162 386C168.588 389.581 171.621 396.963 175.671 403C181.789 412.12 188.601 420.961 196.09 429C220.378 455.076 253.941 471.486 288 453.891C297.15 449.164 305.473 442.922 313 435.91C323.102 426.5 331.715 415.316 339.565 404C343.955 397.671 346.96 389.74 354 386L354 385L342 381M157.667 384.333L158.333 384.667L157.667 384.333M153 385L154 386L153 385z"/>
<path style="fill:#fef1e8; stroke:none;" d="M69 425C73.384 434.457 83.1881 442.727 91 449.421C107.75 463.772 125.228 476.36 145 486.247C225.109 526.307 324.719 519.928 398 467.709C415.046 455.563 432.869 441.238 445 424C436.91 423.503 427.939 416.496 421 412.576C407.073 404.708 392.866 397.346 378 391.4C371.234 388.693 361.428 383.331 354.004 385.654C344.452 388.642 337.5 406.367 331.575 414C314.453 436.055 287.62 463.245 257 461.896C227.988 460.618 203.727 438.582 186.665 417C180.28 408.923 171.989 388.857 161.985 385.653C153.327 382.88 141.771 389.54 134 392.85C111.726 402.339 91.5056 416.37 69 425z"/>
<path style="fill:#fe4155; stroke:none;" d="M339 385L340 386L339 385z"/>
<path style="fill:#fab481; stroke:none;" d="M361 385L362 386L361 385M150 386L151 387L150 386z"/>
<path style="fill:#fe4155; stroke:none;" d="M176 386L177 387L176 386z"/>
<path style="fill:#fab481; stroke:none;" d="M364 386L365 387L364 386M147 387L148 388L147 387M367 387L368 388L367 387M144 388L145 389L144 388M370 388L371 389L370 388M142 389L143 390L142 389z"/>
<path style="fill:#fe4155; stroke:none;" d="M178 389L179 390L178 389z"/>
<path style="fill:#fab481; stroke:none;" d="M373 389L374 390L373 389M139 390L140 391L139 390M375 390L376 391L375 390M137 391L138 392L137 391z"/>
<path style="fill:#fe4155; stroke:none;" d="M335 391L336 392L335 391z"/>
<path style="fill:#fab481; stroke:none;" d="M378 391L379 392L378 391M134 392L135 393L134 392z"/>
<path style="fill:#fe4155; stroke:none;" d="M180 392L181 393L180 392z"/>
<path style="fill:#fab481; stroke:none;" d="M380 392L381 393L380 392M45 393L46 394L45 393M132 393L133 394L132 393M383 393L384 394L383 393z"/>
<path style="fill:#ff2020; stroke:none;" d="M466 393L467 394L466 393z"/>
<path style="fill:#fab481; stroke:none;" d="M130 394L131 395L130 394z"/>
<path style="fill:#fe4155; stroke:none;" d="M333 394L334 395L333 394z"/>
<path style="fill:#fab481; stroke:none;" d="M385 394L386 395L385 394M127 395L128 396L127 395M387 395L388 396L387 395M125 396L126 397L125 396z"/>
<path style="fill:#fe4155; stroke:none;" d="M183 396L184 397L183 396z"/>
<path style="fill:#fab481; stroke:none;" d="M389 396L390 397L389 396M123 397L124 398L123 397M391 397L392 398L391 397M121 398L122 399L121 398M394 398L395 399L394 398M119 399L120 400L119 399z"/>
<path style="fill:#fe4155; stroke:none;" d="M329 399L330 400L329 399z"/>
<path style="fill:#fab481; stroke:none;" d="M396 399L397 400L396 399M117 400L118 401L117 400z"/>
<path style="fill:#fe4155; stroke:none;" d="M328 400L329 401L328 400z"/>
<path style="fill:#fab481; stroke:none;" d="M398 400L399 401L398 400M50 401L51 402L50 401M115 401L116 402L115 401M400 401L401 402L400 401z"/>
<path style="fill:#ff2020; stroke:none;" d="M461 401L462 402L461 401z"/>
<path style="fill:#fab481; stroke:none;" d="M113 402L114 403L113 402z"/>
<path style="fill:#fe4155; stroke:none;" d="M188 402L189 403L188 402z"/>
<path style="fill:#fab481; stroke:none;" d="M402 402L403 403L402 402M111 403L112 404L111 403z"/>
<path style="fill:#fe4155; stroke:none;" d="M189 403L190 404L189 403z"/>
<path style="fill:#fab481; stroke:none;" d="M404 403L405 404L404 403z"/>
<path style="fill:#ff2020; stroke:none;" d="M52 404L53 405L52 404z"/>
<path style="fill:#fab481; stroke:none;" d="M109 404L110 405L109 404z"/>
<path style="fill:#fe4155; stroke:none;" d="M190 404L191 405L190 404z"/>
<path style="fill:#fab481; stroke:none;" d="M406 404L407 405L406 404M107 405L108 406L107 405z"/>
<path style="fill:#fe4155; stroke:none;" d="M191 405L192 406L191 405z"/>
<path style="fill:#fab481; stroke:none;" d="M408 405L409 406L408 405M105 406L106 407L105 406z"/>
<path style="fill:#fe4155; stroke:none;" d="M192 406L193 407L192 406z"/>
<path style="fill:#fab481; stroke:none;" d="M409 406L410 407L409 406M103 407L104 408L103 407z"/>
<path style="fill:#fe4155; stroke:none;" d="M193 407L194 408L193 407z"/>
<path style="fill:#fab481; stroke:none;" d="M411 407L412 408L411 407z"/>
<path style="fill:#fe4155; stroke:none;" d="M194 408L195 409L194 408z"/>
<path style="fill:#fab481; stroke:none;" d="M413 408L414 409L413 408M100 409L101 410L100 409z"/>
<path style="fill:#fe4155; stroke:none;" d="M195 409L196 410L195 409z"/>
<path style="fill:#fab481; stroke:none;" d="M415 409L416 410L415 409M98 410L99 411L98 410z"/>
<path style="fill:#fe4155; stroke:none;" d="M196 410L197 411L196 410z"/>
<path style="fill:#fab481; stroke:none;" d="M417 410L418 411L417 410M96 411L97 412L96 411z"/>
<path style="fill:#fe4155; stroke:none;" d="M197 411L198 412L197 411z"/>
<path style="fill:#fab481; stroke:none;" d="M94 412L95 413L94 412z"/>
<path style="fill:#fe4155; stroke:none;" d="M316 412L317 413L316 412z"/>
<path style="fill:#fab481; stroke:none;" d="M420 412L421 413L420 412z"/>
<path style="fill:#fe4155; stroke:none;" d="M315 413L316 414L315 413z"/>
<path style="fill:#fab481; stroke:none;" d="M422 413L423 414L422 413M424 414L425 415L424 414M89 415L90 416L89 415z"/>
<path style="fill:#fe4155; stroke:none;" d="M202 415L203 416L202 415z"/>
<path style="fill:#fab481; stroke:none;" d="M426 415L427 416L426 415M87 416L88 417L87 416z"/>
<path style="fill:#fe4155; stroke:none;" d="M203 416L204 417L203 416z"/>
<path style="fill:#fab481; stroke:none;" d="M85 417L86 418L85 417z"/>
<path style="fill:#fe4155; stroke:none;" d="M310 417L311 418L310 417z"/>
<path style="fill:#fab481; stroke:none;" d="M429 417L430 418L429 417z"/>
<path style="fill:#fe4155; stroke:none;" d="M206 418L207 419L206 418z"/>
<path style="fill:#fab481; stroke:none;" d="M431 418L432 419L431 418z"/>
<path style="fill:#ff2020; stroke:none;" d="M63 419L64 420L63 419z"/>
<path style="fill:#fab481; stroke:none;" d="M82 419L83 420L82 419z"/>
<path style="fill:#fe4155; stroke:none;" d="M207 419L208 420L207 419M307 419L308 420L307 419z"/>
<path style="fill:#fab481; stroke:none;" d="M433 419L434 420L433 419z"/>
<path style="fill:#ff2020; stroke:none;" d="M448 419L449 420L448 419z"/>
<path style="fill:#fab481; stroke:none;" d="M80 420L81 421L80 420M435 420L436 421L435 420M78 421L79 422L78 421z"/>
<path style="fill:#fe4155; stroke:none;" d="M304 421L305 422L304 421z"/>
<path style="fill:#fab481; stroke:none;" d="M437 421L438 422L437 421M76 422L77 423L76 422M439 422L440 423L439 422M72.6667 423.333L73.3333 423.667L72.6667 423.333z"/>
<path style="fill:#fe4155; stroke:none;" d="M301 423L302 424L301 423z"/>
<path style="fill:#fab481; stroke:none;" d="M441.667 423.333L442.333 423.667L441.667 423.333M68 424L68 426L70 424L68 424z"/>
<path style="fill:#fe4155; stroke:none;" d="M215 424L216 425L215 424M299 424L300 425L299 424z"/>
<path style="fill:#fab481; stroke:none;" d="M443 424L444 425L443 424z"/>
<path style="fill:#fe4155; stroke:none;" d="M217 425L218 426L217 425M219 426L220 427L219 426M221 427L222 428L221 427M223 428L224 429L223 428M225 429L226 430L225 429M289 429L290 430L289 429M230 431L231 432L230 431M284 431L285 432L284 431M281 432L282 433L281 432M236 433L237 434L236 433M278 433L279 434L278 433M239 434L240 435L239 434M275 434L276 435L275 434M243 435L244 436L243 435M248 436L249 437L248 436M265 436L266 437L265 436M255 437L255 438L258 438L255 437z"/>
</svg>
