<?xml version="1.0" standalone="no"?>
<!DOCTYPE svg PUBLIC "-//W3C//DTD SVG 20010904//EN"
 "http://www.w3.org/TR/2001/REC-SVG-20010904/DTD/svg10.dtd">
<svg version="1.0" xmlns="http://www.w3.org/2000/svg"
 width="512.000000pt" height="512.000000pt" viewBox="0 0 512.000000 512.000000"
 preserveAspectRatio="xMidYMid meet">

<g transform="translate(0.000000,512.000000) scale(0.100000,-0.100000)"
fill="#000000" stroke="none">
<path d="M2535 5109 c-164 -22 -317 -74 -618 -208 -76 -34 -166 -69 -199 -77
-112 -29 -208 -1 -327 94 -95 77 -115 70 -159 -51 -42 -114 -62 -220 -62 -319
l0 -83 -93 -70 c-122 -92 -320 -285 -420 -410 -261 -323 -438 -715 -507 -1119
-115 -675 57 -1371 473 -1908 33 -43 65 -78 72 -78 28 0 97 31 220 100 283
160 628 309 680 296 12 -3 45 1 75 9 30 8 58 15 61 15 3 0 22 -26 42 -58 121
-195 339 -370 556 -445 138 -48 218 -58 326 -42 281 42 547 218 715 473 33 49
58 78 65 73 15 -11 105 -29 145 -29 78 0 361 -124 660 -290 91 -51 174 -92
186 -92 14 0 41 27 86 88 260 343 426 759 479 1197 20 163 15 456 -10 623 -40
268 -108 486 -226 727 -130 265 -280 470 -496 680 -204 197 -381 322 -644 451
-121 59 -155 80 -174 109 -88 130 -316 269 -537 325 -92 24 -269 33 -369 19z
m844 -934 c44 -22 117 -130 144 -209 5 -17 13 -110 17 -206 l7 -175 45 -88
c26 -48 49 -106 53 -128 6 -36 10 -40 29 -34 11 4 48 9 82 12 57 5 63 3 96
-26 20 -17 41 -45 48 -61 22 -52 7 -153 -39 -270 -22 -58 -46 -132 -52 -165
-7 -33 -20 -76 -30 -96 -17 -35 -71 -89 -89 -89 -5 0 -15 -3 -23 -6 -12 -4
-16 13 -22 93 -11 153 -14 158 -42 63 -54 -189 -136 -335 -239 -429 -31 -28
-59 -51 -63 -51 -4 0 -14 13 -24 29 -28 47 -142 147 -200 175 -82 38 -140 48
-242 40 -62 -5 -98 -13 -115 -25 -62 -45 -162 -44 -237 3 -28 16 -53 20 -150
21 -113 2 -121 1 -183 -29 -88 -42 -161 -102 -211 -173 l-42 -60 -31 16 c-47
24 -157 141 -198 212 -41 71 -86 179 -120 291 l-23 75 -8 -95 c-13 -156 -15
-162 -40 -154 -65 20 -108 84 -128 188 -6 32 -30 108 -54 169 -69 179 -69 253
2 323 35 35 37 36 97 31 34 -3 71 -8 83 -12 19 -6 23 -2 33 37 7 23 33 86 58
138 l47 95 2 165 c3 199 17 275 55 303 l26 20 93 -37 c213 -86 433 -123 669
-113 239 10 474 72 706 187 125 61 166 70 213 45z m-692 -1960 c51 -15 128
-28 183 -32 92 -5 166 -25 158 -40 -2 -5 -19 -39 -36 -78 -53 -113 -54 -115
-105 -161 -73 -65 -128 -79 -312 -78 -187 0 -242 17 -320 98 -60 62 -118 191
-94 208 43 29 102 46 184 52 67 4 217 37 252 55 2 0 42 -10 90 -24z"/>
<path d="M1892 3468 c-58 -13 -116 -71 -135 -135 -8 -26 -13 -49 -12 -51 2 -2
26 12 54 31 74 52 111 61 211 54 90 -7 176 -23 318 -58 46 -12 86 -19 89 -16
10 10 -18 95 -36 111 -20 18 -111 38 -269 60 -125 18 -157 18 -220 4z"/>
<path d="M3015 3459 c-111 -16 -203 -40 -218 -57 -17 -19 -41 -101 -33 -110 4
-3 77 11 164 32 207 50 326 58 399 27 28 -13 61 -34 74 -47 33 -35 40 -30 25
20 -19 61 -50 103 -96 126 -33 17 -58 20 -147 19 -59 -1 -135 -5 -168 -10z"/>
<path d="M2023 3201 c-48 -21 -36 -141 17 -168 14 -7 53 -13 87 -13 56 0 63 2
87 31 37 43 37 111 0 135 -29 20 -157 29 -191 15z"/>
<path d="M2992 3197 c-18 -7 -37 -19 -42 -27 -17 -26 -11 -76 13 -111 22 -33
25 -34 94 -37 62 -2 74 0 98 21 21 18 29 35 32 74 7 73 -15 93 -99 92 -35 0
-78 -6 -96 -12z"/>
</g>
</svg>
