<?xml version="1.0" standalone="no"?>
<!DOCTYPE svg PUBLIC "-//W3C//DTD SVG 20010904//EN"
 "http://www.w3.org/TR/2001/REC-SVG-20010904/DTD/svg10.dtd">
<svg version="1.0" xmlns="http://www.w3.org/2000/svg"
 width="512.000000pt" height="512.000000pt" viewBox="0 0 512.000000 512.000000"
 preserveAspectRatio="xMidYMid meet">
<metadata>
Created by potrace 1.16, written by Peter Selinger 2001-2019
</metadata>
<g transform="translate(0.000000,512.000000) scale(0.100000,-0.100000)"
fill="#000000" stroke="none">
<path d="M1340 4319 l0 -162 -34 -42 c-54 -66 -104 -165 -126 -250 -18 -71
-20 -111 -20 -428 l0 -349 -31 -36 c-67 -77 -69 -83 -69 -432 0 -310 1 -316
24 -365 28 -62 101 -128 163 -149 29 -10 81 -16 134 -16 77 0 90 2 99 19 6 13
10 197 10 529 0 479 1 514 20 573 55 178 200 324 385 387 l80 27 833 3 832 3
-7 -748 c-5 -573 -3 -753 6 -771 11 -20 19 -22 100 -22 53 0 105 6 134 16 62
21 135 87 163 149 23 49 24 55 24 365 0 310 -1 316 -24 365 -13 28 -35 61 -50
74 l-26 24 0 333 c0 369 -7 434 -59 549 -86 189 -232 317 -440 385 -49 16
-111 40 -138 53 -26 14 -79 35 -118 48 l-70 24 -897 3 -898 3 0 -162z"/>
</g>
</svg>
