<svg version="1.1" id="Layer_1" xmlns="http://www.w3.org/2000/svg" xmlns:xlink="http://www.w3.org/1999/xlink" x="0px" y="0px"
	 width="100%" viewBox="0 0 512 512" enable-background="new 0 0 512 512" xml:space="preserve">
<path fill="#000000" opacity="1.000000" stroke="none" 
	d="
M288.000000,1.000001 
	C362.966034,1.000000 437.932037,1.000000 512.949036,1.000000 
	C512.949036,171.555344 512.949036,342.110718 512.949036,513.000000 
	C438.312225,513.000000 363.623962,513.000000 288.159332,512.639832 
	C287.886597,511.867462 288.337708,511.195496 288.901611,511.081482 
	C300.750793,508.685547 312.728424,506.818085 324.446991,503.906036 
	C345.949677,498.562592 365.980927,489.443329 384.656860,477.645813 
	C394.880646,471.187531 404.904633,464.162262 413.989929,456.216400 
	C425.166046,446.441986 435.269592,435.441162 445.990875,424.663757 
	C448.383453,421.729736 450.834656,419.253571 452.825684,416.450562 
	C465.678436,398.356750 476.949280,379.438049 485.188782,358.674744 
	C494.402832,335.455627 500.055389,311.442139 501.759979,286.683105 
	C502.747070,272.345856 501.954041,257.794006 500.808289,243.430786 
	C499.879578,231.788544 497.824036,220.147507 495.215881,208.746689 
	C490.113403,186.442963 481.314636,165.505157 469.947632,145.643280 
	C460.072876,128.388763 448.242188,112.557007 434.573669,98.184250 
	C420.159454,83.027351 404.144318,69.611183 386.006104,59.155602 
	C373.791290,52.114498 360.809967,46.403072 348.018188,39.776482 
	C346.513824,37.407196 345.385498,35.161549 343.776642,33.340443 
	C331.185944,19.089024 315.145172,10.454922 297.217041,4.871212 
	C294.049988,3.884837 291.067657,2.305507 288.000000,1.000001 
z"/>
<path fill="#000000" opacity="1.000000" stroke="none" 
	d="
M226.000000,513.000000 
	C151.033234,513.000000 76.066467,513.000000 1.049849,513.000000 
	C1.049849,342.442200 1.049849,171.884384 1.049849,1.000000 
	C83.021141,1.000000 165.042725,1.000000 247.559341,1.397601 
	C242.689011,3.499701 237.323654,5.204200 231.569550,6.942594 
	C216.676880,12.874734 202.000961,18.387363 187.709244,24.761414 
	C166.164383,34.370338 154.032104,33.364361 138.653229,19.078175 
	C133.023453,13.848387 127.863075,14.971431 125.019882,22.245462 
	C119.429459,36.547993 116.430969,51.297653 116.660965,66.833458 
	C110.885605,71.133842 105.018951,74.851730 100.099693,79.559570 
	C87.985802,91.152840 75.413620,102.451286 64.674637,115.251656 
	C50.517189,132.126694 39.729042,151.364655 31.024090,171.700256 
	C20.429676,196.449799 13.674784,222.259369 12.216781,249.047607 
	C10.703767,276.846588 12.184881,304.521851 19.836983,331.704468 
	C26.501791,355.379944 35.741959,377.788513 49.067287,398.386627 
	C55.152359,407.792877 62.426071,416.430206 69.137177,425.730957 
	C72.302528,429.761353 75.152435,433.848846 78.743629,437.123291 
	C89.622360,447.042389 100.333931,457.238647 111.989273,466.181824 
	C120.949379,473.056885 131.238464,478.199982 141.092194,484.438721 
	C141.405136,484.816589 141.572800,484.849060 141.718399,484.924255 
	C167.827789,498.411591 195.149475,508.041656 224.563202,511.093781 
	C225.102249,511.149719 225.523682,512.339355 226.000000,513.000000 
z"/>
<path fill="#FFF5EE" opacity="1.000000" stroke="none" 
	d="
M226.468658,513.000000 
	C225.523682,512.339355 225.102249,511.149719 224.563202,511.093781 
	C195.149475,508.041656 167.827789,498.411591 141.718399,484.924255 
	C141.572800,484.849060 141.405136,484.816589 141.230179,484.119202 
	C142.266174,482.249176 143.237717,480.940491 144.386429,479.812195 
	C153.131866,471.222656 163.449371,464.928162 174.827972,460.721649 
	C188.446442,455.687042 202.369995,451.477692 216.462952,447.056641 
	C220.416245,449.517609 223.960968,452.026917 227.740036,454.111328 
	C238.569122,460.084320 250.145706,463.595062 262.595123,462.680847 
	C277.307159,461.600525 290.091644,455.341675 301.754639,446.649323 
	C320.889832,432.388062 334.944641,413.733459 347.539673,393.770905 
	C349.398621,390.824554 352.509216,388.667969 355.478271,386.104126 
	C359.014526,386.453461 362.272461,386.358154 365.186676,387.312561 
	C389.034851,395.122437 410.852905,407.222321 432.635468,419.416534 
	C436.774963,421.733856 441.423187,423.142487 445.836670,424.970398 
	C435.269592,435.441162 425.166046,446.441986 413.989929,456.216400 
	C404.904633,464.162262 394.880646,471.187531 384.656860,477.645813 
	C365.980927,489.443329 345.949677,498.562592 324.446991,503.906036 
	C312.728424,506.818085 300.750793,508.685547 288.901611,511.081482 
	C288.337708,511.195496 287.886597,511.867462 287.691467,512.639832 
	C267.645782,513.000000 247.291550,513.000000 226.468658,513.000000 
z"/>
<path fill="#41416B" opacity="1.000000" stroke="none" 
	d="
M231.958282,6.908698 
	C237.323654,5.204200 242.689011,3.499701 248.027191,1.397601 
	C261.020905,1.000000 274.041779,1.000000 287.531342,1.000001 
	C291.067657,2.305507 294.049988,3.884837 297.217041,4.871212 
	C315.145172,10.454922 331.185944,19.089024 343.776642,33.340443 
	C345.385498,35.161549 346.513824,37.407196 348.107178,40.103142 
	C352.237915,51.185009 358.930786,58.488728 369.308533,63.474949 
	C379.464752,68.354744 385.566833,77.712875 387.959839,88.818092 
	C391.662933,106.003304 390.578430,123.273445 387.287537,140.373413 
	C384.874115,152.914032 381.750427,165.317978 378.514709,177.829727 
	C374.384216,178.695236 370.682312,179.513870 366.745483,180.022430 
	C364.531281,174.265732 363.286285,168.387939 360.400635,163.473495 
	C356.072571,156.102509 354.172424,148.574188 354.896057,140.156006 
	C355.208618,136.520218 355.000671,132.838501 355.004547,129.177612 
	C355.015656,118.614357 351.483704,109.327454 344.891418,101.141617 
	C338.178162,92.805565 333.783417,91.924889 324.269928,96.906349 
	C302.718536,108.191116 280.072510,115.864952 255.717484,118.310478 
	C239.004715,119.988625 222.522522,118.745132 206.055115,115.577988 
	C206.020096,115.394600 205.901855,115.040421 206.210175,114.882233 
	C218.606201,98.250748 222.703995,80.211777 213.467590,61.503345 
	C205.362442,45.086216 210.348953,29.518208 221.165283,18.318489 
	C224.801956,14.552897 228.362793,10.714059 231.958282,6.908698 
z"/>
<path fill="#FF4155" opacity="1.000000" stroke="none" 
	d="
M378.943298,177.782837 
	C381.750427,165.317978 384.874115,152.914032 387.287537,140.373413 
	C390.578430,123.273445 391.662933,106.003304 387.959839,88.818092 
	C385.566833,77.712875 379.464752,68.354744 369.308533,63.474949 
	C358.930786,58.488728 352.237915,51.185009 348.260559,40.423466 
	C360.809967,46.403072 373.791290,52.114498 386.006104,59.155602 
	C404.144318,69.611183 420.159454,83.027351 434.573669,98.184250 
	C448.242188,112.557007 460.072876,128.388763 469.947632,145.643280 
	C481.314636,165.505157 490.113403,186.442963 495.215881,208.746689 
	C497.824036,220.147507 499.879578,231.788544 500.808289,243.430786 
	C501.954041,257.794006 502.747070,272.345856 501.759979,286.683105 
	C500.055389,311.442139 494.402832,335.455627 485.188782,358.674744 
	C476.949280,379.438049 465.678436,398.356750 452.825684,416.450562 
	C450.834656,419.253571 448.383453,421.729736 445.990845,424.663727 
	C441.423187,423.142487 436.774963,421.733856 432.635468,419.416534 
	C410.852905,407.222321 389.034851,395.122437 365.186676,387.312561 
	C362.272461,386.358154 359.014526,386.453461 355.094910,386.022461 
	C350.737305,384.652100 347.200684,383.321564 343.771301,381.629639 
	C345.569763,377.845337 347.353973,374.464905 348.937439,370.992920 
	C361.424133,343.614807 365.754761,314.501160 366.754852,284.781342 
	C367.145264,273.180481 366.472229,261.543854 366.627106,249.877197 
	C373.918243,248.168640 378.201874,243.695496 380.136108,236.978699 
	C382.232422,229.699158 384.115021,222.358078 386.345032,214.797821 
	C388.285736,209.562363 390.364410,204.666214 391.578491,199.564331 
	C394.242859,188.367935 388.775299,179.257706 378.943298,177.782837 
z"/>
<path fill="#FF4155" opacity="1.000000" stroke="none" 
	d="
M69.160683,425.416260 
	C62.426071,416.430206 55.152359,407.792877 49.067287,398.386627 
	C35.741959,377.788513 26.501791,355.379944 19.836983,331.704468 
	C12.184881,304.521851 10.703767,276.846588 12.216781,249.047607 
	C13.674784,222.259369 20.429676,196.449799 31.024090,171.700256 
	C39.729042,151.364655 50.517189,132.126694 64.674637,115.251656 
	C75.413620,102.451286 87.985802,91.152840 100.099693,79.559570 
	C105.018951,74.851730 110.885605,71.133842 116.965965,67.121719 
	C118.470200,73.084076 119.329651,78.890244 120.309151,85.507393 
	C117.590775,84.821106 115.855942,84.438477 114.154198,83.942375 
	C110.206535,82.791527 108.887047,83.754951 110.119652,87.510216 
	C113.910728,99.060188 118.387115,110.260338 125.623360,120.271278 
	C128.435104,124.161163 130.298401,128.932098 131.740570,133.567139 
	C133.554291,139.396347 134.546341,145.486694 135.796829,151.484390 
	C137.621216,160.234604 139.360031,169.002655 140.715820,177.827103 
	C131.937607,178.294067 126.331871,184.147018 125.845009,192.463226 
	C125.390533,200.226288 127.813362,207.180405 131.108902,214.232864 
	C131.328842,214.792786 131.575974,214.995300 131.905243,215.078278 
	C131.887848,215.080200 131.883118,215.114899 131.904572,215.496445 
	C133.655594,222.534180 135.230362,229.235550 137.156982,235.834213 
	C139.209244,242.863190 142.981522,248.355820 151.101868,249.729507 
	C151.049942,258.980225 150.477554,267.807220 150.950241,276.577881 
	C151.796417,292.278412 152.585205,308.036224 154.653183,323.603363 
	C157.419174,344.424896 164.388687,364.080139 173.875061,382.810059 
	C170.293671,384.048279 167.094086,385.137207 163.451355,386.159058 
	C159.120239,386.557648 155.024582,386.392120 151.378235,387.592072 
	C128.784225,395.027161 108.109993,406.549988 87.360405,417.946198 
	C81.649063,421.083008 75.246223,422.960785 69.160683,425.416260 
z"/>
<path fill="#36355E" opacity="1.000000" stroke="none" 
	d="
M141.135315,177.763092 
	C139.360031,169.002655 137.621216,160.234604 135.796829,151.484390 
	C134.546341,145.486694 133.554291,139.396347 131.740570,133.567139 
	C130.298401,128.932098 128.435104,124.161163 125.623360,120.271278 
	C118.387115,110.260338 113.910728,99.060188 110.119652,87.510216 
	C108.887047,83.754951 110.206535,82.791527 114.154198,83.942375 
	C115.855942,84.438477 117.590775,84.821106 120.309151,85.507393 
	C119.329651,78.890244 118.470200,73.084076 117.305756,66.989655 
	C116.430969,51.297653 119.429459,36.547993 125.019882,22.245462 
	C127.863075,14.971431 133.023453,13.848387 138.653229,19.078175 
	C154.032104,33.364361 166.164383,34.370338 187.709244,24.761414 
	C202.000961,18.387363 216.676880,12.874734 231.569550,6.942594 
	C228.362793,10.714059 224.801956,14.552897 221.165283,18.318489 
	C210.348953,29.518208 205.362442,45.086216 213.467590,61.503345 
	C222.703995,80.211777 218.606201,98.250748 205.809540,114.886200 
	C195.642715,112.042763 185.982727,109.541977 176.794266,105.863403 
	C170.081970,103.176147 165.305832,104.644363 164.422958,112.489250 
	C163.424088,121.364815 163.365906,130.342636 162.727921,139.263779 
	C162.340698,144.678589 162.590897,150.405472 160.849136,155.397034 
	C157.932144,163.756607 153.652100,171.640564 149.969147,179.673569 
	C147.285355,179.093140 144.210327,178.428116 141.135315,177.763092 
z"/>
<path fill="#FCE6D6" opacity="1.000000" stroke="none" 
	d="
M69.137177,425.730957 
	C75.246223,422.960785 81.649063,421.083008 87.360405,417.946198 
	C108.109993,406.549988 128.784225,395.027161 151.378235,387.592072 
	C155.024582,386.392120 159.120239,386.557648 163.644867,386.429321 
	C166.655853,389.468750 169.433014,391.914856 171.339127,394.914490 
	C183.616180,414.234650 197.080826,432.476715 215.987366,446.263062 
	C216.042557,446.479767 216.161423,446.910919 216.161423,446.910919 
	C202.369995,451.477692 188.446442,455.687042 174.827972,460.721649 
	C163.449371,464.928162 153.131866,471.222656 144.386429,479.812195 
	C143.237717,480.940491 142.266174,482.249176 141.074554,483.793762 
	C131.238464,478.199982 120.949379,473.056885 111.989273,466.181824 
	C100.333931,457.238647 89.622360,447.042389 78.743629,437.123291 
	C75.152435,433.848846 72.302528,429.761353 69.137177,425.730957 
z"/>
<path fill="#FBAD6E" opacity="1.000000" stroke="none" 
	d="
M216.462952,447.056641 
	C216.161423,446.910919 216.042557,446.479767 216.301743,446.119141 
	C220.736282,441.146667 224.911652,436.534790 229.465607,431.944031 
	C231.240143,432.458923 232.599823,433.149170 234.037888,433.414337 
	C242.682465,435.008301 251.345016,436.504608 260.438049,438.090393 
	C279.251038,436.714722 295.536530,429.798950 310.442444,419.256500 
	C324.388062,409.393280 334.724365,396.315460 343.664032,381.991058 
	C347.200684,383.321564 350.737305,384.652100 354.657349,386.064301 
	C352.509216,388.667969 349.398621,390.824554 347.539673,393.770905 
	C334.944641,413.733459 320.889832,432.388062 301.754639,446.649323 
	C290.091644,455.341675 277.307159,461.600525 262.595123,462.680847 
	C250.145706,463.595062 238.569122,460.084320 227.740036,454.111328 
	C223.960968,452.026917 220.416245,449.517609 216.462952,447.056641 
z"/>
<path fill="#F8BA8F" opacity="1.000000" stroke="none" 
	d="
M206.090134,115.761375 
	C222.522522,118.745132 239.004715,119.988625 255.717484,118.310478 
	C280.072510,115.864952 302.718536,108.191116 324.269928,96.906349 
	C333.783417,91.924889 338.178162,92.805565 344.891418,101.141617 
	C351.483704,109.327454 355.015656,118.614357 355.004547,129.177612 
	C355.000671,132.838501 355.208618,136.520218 354.896057,140.156006 
	C354.172424,148.574188 356.072571,156.102509 360.400635,163.473495 
	C363.286285,168.387939 364.531281,174.265732 366.749939,180.441895 
	C368.896576,192.278961 367.276459,203.180801 365.050537,214.478821 
	C364.379883,218.912720 363.730682,222.916351 363.070801,227.322037 
	C357.578491,248.865677 349.922455,268.689453 330.817780,282.164307 
	C320.480560,266.036835 306.583405,257.257172 287.984985,256.128082 
	C287.517365,253.203323 287.837555,250.030899 286.410645,248.292740 
	C283.059235,244.210312 272.244415,244.746475 268.620758,248.605209 
	C264.664551,252.818069 258.013062,253.226212 254.591476,248.677170 
	C249.657074,242.116837 244.073257,245.926666 238.786057,247.035599 
	C233.333649,248.179169 235.372162,252.984940 234.583374,256.632141 
	C231.755951,256.922516 229.366745,257.115631 226.600616,257.283325 
	C217.050674,258.985779 209.243057,263.461945 202.053650,268.814850 
	C201.646637,264.766571 201.205719,261.158630 200.910995,257.538727 
	C199.570084,241.070724 198.270309,224.599380 197.344070,208.137115 
	C199.513565,208.420975 201.294739,208.696945 203.042801,208.984482 
	C203.009705,208.996048 202.993408,208.927841 203.087814,209.160599 
	C203.461594,209.569458 203.740952,209.745544 204.430878,209.994812 
	C209.927658,210.363708 215.013855,210.659470 220.520477,210.956055 
	C227.556061,209.728271 234.171234,208.499649 240.786407,207.271027 
	C240.857071,206.861465 240.927719,206.451889 240.998367,206.042313 
	C235.646622,202.645599 230.294876,199.248871 224.666626,195.648102 
	C216.977982,191.245178 209.366089,190.229050 201.059784,193.997223 
	C198.782028,194.667175 196.897980,195.344437 195.010376,195.558105 
	C195.668167,188.775665 196.329544,182.456818 197.426346,176.069122 
	C201.235870,176.265884 204.609940,176.531464 208.395737,176.878448 
	C220.084320,179.273499 231.361191,181.587128 242.688965,183.911209 
	C242.638214,175.726669 240.525909,171.719681 234.904114,170.584320 
	C226.309128,168.848526 217.612961,167.613678 208.559677,166.083496 
	C205.442322,165.655273 202.725037,165.309723 200.156738,164.644196 
	C201.870621,159.671799 204.409821,155.100784 204.806793,150.350739 
	C205.766617,138.865417 205.726898,127.296562 206.090134,115.761375 
M294.758026,196.062805 
	C289.559204,199.447525 284.360382,202.832245 277.848724,207.071671 
	C286.305725,208.529953 293.222931,209.722733 301.048645,211.016068 
	C306.111267,210.657379 311.173889,210.298706 316.968475,209.884094 
	C322.636810,207.930725 328.305145,205.977341 333.973480,204.023956 
	C334.086121,203.339523 334.198792,202.655106 334.311432,201.970673 
	C329.171082,199.252945 324.030701,196.535233 318.239136,193.457962 
	C310.274048,190.775940 302.619995,190.880676 294.758026,196.062805 
M304.846954,178.040054 
	C318.718262,175.520279 332.687714,172.418594 344.075806,185.460159 
	C344.013489,174.973419 337.178345,166.496567 327.814545,166.103455 
	C319.234528,165.743271 310.594757,166.806778 301.187531,167.213425 
	C296.657806,168.128143 292.131989,169.062515 287.597534,169.953156 
	C279.901062,171.464890 276.798615,175.812347 277.680084,184.474426 
	C286.496094,182.310822 295.252106,180.161942 304.846954,178.040054 
z"/>
<path fill="#FBAD6D" opacity="1.000000" stroke="none" 
	d="
M206.055115,115.577988 
	C205.726898,127.296562 205.766617,138.865417 204.806793,150.350739 
	C204.409821,155.100784 201.870621,159.671799 199.728058,164.722351 
	C197.017746,165.343307 194.864563,165.446671 192.755951,165.809280 
	C182.514008,167.570602 176.018692,174.986649 176.171082,185.308075 
	C182.342163,179.952866 188.551620,175.319321 196.990906,176.137955 
	C196.329544,182.456818 195.668167,188.775665 194.799149,195.813751 
	C191.743149,198.736176 188.894806,200.939377 185.626694,203.467255 
	C190.097946,205.307205 193.526840,206.718216 196.955734,208.129227 
	C198.270309,224.599380 199.570084,241.070724 200.910995,257.538727 
	C201.205719,261.158630 201.646637,264.766571 201.906586,269.105469 
	C198.001740,274.375427 194.210541,278.919922 190.316132,283.588135 
	C179.663788,278.465912 172.160522,270.102478 167.339371,259.949432 
	C162.044250,248.798187 158.302795,236.909195 153.910965,224.908188 
	C153.389145,221.153976 152.840759,217.833237 152.133759,213.552094 
	C145.168839,219.146988 138.548706,218.074722 131.883118,215.114899 
	C131.883118,215.114899 131.887848,215.080200 131.829605,214.846405 
	C131.598190,214.321716 131.353256,214.116501 131.036530,213.996933 
	C127.813362,207.180405 125.390533,200.226288 125.845009,192.463226 
	C126.331871,184.147018 131.937607,178.294067 140.715820,177.827103 
	C144.210327,178.428116 147.285355,179.093140 149.969147,179.673569 
	C153.652100,171.640564 157.932144,163.756607 160.849136,155.397034 
	C162.590897,150.405472 162.340698,144.678589 162.727921,139.263779 
	C163.365906,130.342636 163.424088,121.364815 164.422958,112.489250 
	C165.305832,104.644363 170.081970,103.176147 176.794266,105.863403 
	C185.982727,109.541977 195.642715,112.042763 205.501221,115.044388 
	C205.901855,115.040421 206.020096,115.394600 206.055115,115.577988 
z"/>
<path fill="#FCAC6D" opacity="1.000000" stroke="none" 
	d="
M365.071991,214.048553 
	C367.276459,203.180801 368.896576,192.278961 366.984863,180.751953 
	C370.682312,179.513870 374.384216,178.695236 378.514709,177.829727 
	C388.775299,179.257706 394.242859,188.367935 391.578491,199.564331 
	C390.364410,204.666214 388.285736,209.562363 385.963318,214.819275 
	C378.337616,219.383850 371.647491,217.834488 365.071991,214.048553 
z"/>
<path fill="#42416B" opacity="1.000000" stroke="none" 
	d="
M287.978821,256.532196 
	C306.583405,257.257172 320.480560,266.036835 330.817780,282.164307 
	C349.922455,268.689453 357.578491,248.865677 363.395264,227.545395 
	C364.581512,234.885635 365.432556,242.404587 366.283569,249.923523 
	C366.472229,261.543854 367.145264,273.180481 366.754852,284.781342 
	C365.754761,314.501160 361.424133,343.614807 348.937439,370.992920 
	C347.353973,374.464905 345.569763,377.845337 343.771301,381.629639 
	C334.724365,396.315460 324.388062,409.393280 310.442444,419.256500 
	C295.536530,429.798950 279.251038,436.714722 260.476074,437.734131 
	C266.244507,427.255859 269.816437,416.646576 266.945923,404.677612 
	C264.737305,395.468658 260.414307,387.368011 254.524261,379.970398 
	C244.018723,366.775909 244.155289,352.284332 254.601044,338.861206 
	C256.510529,336.407471 258.195038,333.778717 260.439758,331.169800 
	C285.110291,331.021729 293.133331,324.884430 304.095428,297.282715 
	C299.915955,296.526489 295.960602,295.810852 291.569672,295.013855 
	C282.705109,293.445801 274.290253,291.870117 265.838776,290.524872 
	C263.183777,290.102264 260.349884,289.840973 257.737152,290.299438 
	C250.448563,291.578430 243.232895,293.273132 235.944275,294.472504 
	C234.762878,292.757874 233.757858,291.234558 232.466309,290.014496 
	C225.589096,283.518005 222.806473,275.781494 224.995224,266.427612 
	C225.703873,263.399200 226.319397,260.348969 226.977524,257.308716 
	C229.366745,257.115631 231.755951,256.922516 234.975647,256.793610 
	C238.188766,257.270325 240.583923,257.622650 242.950241,258.113831 
	C244.961670,258.531311 247.220566,258.657196 248.885513,259.691742 
	C257.339935,264.945129 265.608582,264.962494 274.033295,259.686737 
	C275.471222,258.786285 277.287872,258.383667 278.987701,258.032135 
	C281.960999,257.417267 284.979340,257.020386 287.978821,256.532196 
z"/>
<path fill="#FC985B" opacity="1.000000" stroke="none" 
	d="
M366.627136,249.877197 
	C365.432556,242.404587 364.581512,234.885635 363.406006,227.143341 
	C363.730682,222.916351 364.379883,218.912720 365.050537,214.478821 
	C371.647491,217.834488 378.337616,219.383850 385.709106,215.065277 
	C384.115021,222.358078 382.232422,229.699158 380.136108,236.978699 
	C378.201874,243.695496 373.918243,248.168640 366.627136,249.877197 
z"/>
<path fill="#36355E" opacity="1.000000" stroke="none" 
	d="
M226.600616,257.283325 
	C226.319397,260.348969 225.703873,263.399200 224.995224,266.427612 
	C222.806473,275.781494 225.589096,283.518005 232.466309,290.014496 
	C233.757858,291.234558 234.762878,292.757874 235.531235,294.539246 
	C233.772476,295.010376 232.382599,295.083557 230.585327,295.091064 
	C224.351257,294.845245 219.840897,297.567200 215.692841,301.089417 
	C217.115021,304.389252 218.547943,307.199982 219.559692,310.154907 
	C223.028061,320.284943 230.138123,326.579773 240.335587,328.885498 
	C246.734482,330.332336 253.424179,330.493011 259.983398,331.230713 
	C258.195038,333.778717 256.510529,336.407471 254.601044,338.861206 
	C244.155289,352.284332 244.018723,366.775909 254.524261,379.970398 
	C260.414307,387.368011 264.737305,395.468658 266.945923,404.677612 
	C269.816437,416.646576 266.244507,427.255859 260.039612,437.677399 
	C251.345016,436.504608 242.682465,435.008301 234.037888,433.414337 
	C232.599823,433.149170 231.240143,432.458923 229.239899,431.675720 
	C221.143188,427.129303 213.329865,423.344269 206.227158,418.514252 
	C192.648346,409.280396 182.967865,396.351746 174.256866,382.660797 
	C164.388687,364.080139 157.419174,344.424896 154.653183,323.603363 
	C152.585205,308.036224 151.796417,292.278412 150.950241,276.577881 
	C150.477554,267.807220 151.049942,258.980225 151.254532,249.314850 
	C152.199921,240.747940 153.042160,233.044785 153.884399,225.341644 
	C158.302795,236.909195 162.044250,248.798187 167.339371,259.949432 
	C172.160522,270.102478 179.663788,278.465912 190.316132,283.588135 
	C194.210541,278.919922 198.001740,274.375427 201.939987,269.540283 
	C209.243057,263.461945 217.050674,258.985779 226.600616,257.283325 
z"/>
<path fill="#FC995C" opacity="1.000000" stroke="none" 
	d="
M173.875061,382.810059 
	C182.967865,396.351746 192.648346,409.280396 206.227158,418.514252 
	C213.329865,423.344269 221.143188,427.129303 228.861298,431.654602 
	C224.911652,436.534790 220.736282,441.146667 216.246552,445.902466 
	C197.080826,432.476715 183.616180,414.234650 171.339127,394.914490 
	C169.433014,391.914856 166.655853,389.468750 164.088013,386.496399 
	C167.094086,385.137207 170.293671,384.048279 173.875061,382.810059 
z"/>
<path fill="#FC985B" opacity="1.000000" stroke="none" 
	d="
M153.910965,224.908188 
	C153.042160,233.044785 152.199921,240.747940 151.204987,248.865753 
	C142.981522,248.355820 139.209244,242.863190 137.156982,235.834213 
	C135.230362,229.235550 133.655594,222.534180 131.904572,215.496445 
	C138.548706,218.074722 145.168839,219.146988 152.133759,213.552094 
	C152.840759,217.833237 153.389145,221.153976 153.910965,224.908188 
z"/>
<path fill="#FC985B" opacity="1.000000" stroke="none" 
	d="
M131.108902,214.232864 
	C131.353256,214.116501 131.598190,214.321716 131.847015,214.844482 
	C131.575974,214.995300 131.328842,214.792786 131.108902,214.232864 
z"/>
<path fill="#F9AC6E" opacity="1.000000" stroke="none" 
	d="
M287.984985,256.128082 
	C284.979340,257.020386 281.960999,257.417267 278.987701,258.032135 
	C277.287872,258.383667 275.471222,258.786285 274.033295,259.686737 
	C265.608582,264.962494 257.339935,264.945129 248.885513,259.691742 
	C247.220566,258.657196 244.961670,258.531311 242.950241,258.113831 
	C240.583923,257.622650 238.188766,257.270325 235.413849,256.696289 
	C235.372162,252.984940 233.333649,248.179169 238.786057,247.035599 
	C244.073257,245.926666 249.657074,242.116837 254.591476,248.677170 
	C258.013062,253.226212 264.664551,252.818069 268.620758,248.605209 
	C272.244415,244.746475 283.059235,244.210312 286.410645,248.292740 
	C287.837555,250.030899 287.517365,253.203323 287.984985,256.128082 
z"/>
<path fill="#46446C" opacity="1.000000" stroke="none" 
	d="
M301.981293,167.242981 
	C310.594757,166.806778 319.234528,165.743271 327.814545,166.103455 
	C337.178345,166.496567 344.013489,174.973419 344.075806,185.460159 
	C332.687714,172.418594 318.718262,175.520279 304.380859,177.645752 
	C303.270294,173.915283 302.625793,170.579132 301.981293,167.242981 
z"/>
<path fill="#46446C" opacity="1.000000" stroke="none" 
	d="
M208.959747,166.166168 
	C217.612961,167.613678 226.309128,168.848526 234.904114,170.584320 
	C240.525909,171.719681 242.638214,175.726669 242.688965,183.911209 
	C231.361191,181.587128 220.084320,179.273499 208.389069,176.495422 
	C208.300369,172.742706 208.630051,169.454437 208.959747,166.166168 
z"/>
<path fill="#44436C" opacity="1.000000" stroke="none" 
	d="
M316.236511,209.940033 
	C311.173889,210.298706 306.111267,210.657379 300.430939,210.663589 
	C295.286102,206.466232 294.043427,201.637634 295.524872,195.993134 
	C302.619995,190.880676 310.274048,190.775940 318.645081,194.063904 
	C321.466278,200.377991 320.119110,205.392670 316.236511,209.940033 
M311.994568,201.413239 
	C312.349731,198.008377 310.339569,196.100189 307.413147,196.347397 
	C305.855225,196.479019 303.409241,198.713821 303.296356,200.151031 
	C303.154480,201.958084 304.534332,204.864334 306.072906,205.606934 
	C308.758087,206.902924 311.231110,205.519928 311.994568,201.413239 
z"/>
<path fill="#44436C" opacity="1.000000" stroke="none" 
	d="
M201.453476,194.004517 
	C209.366089,190.229050 216.977982,191.245178 224.682495,196.109894 
	C226.235168,202.494141 224.298126,207.113342 220.100067,210.955215 
	C215.013855,210.659470 209.927658,210.363708 204.352753,209.750153 
	C203.573853,209.264175 203.283630,209.096008 202.993408,208.927841 
	C202.993408,208.927841 203.009705,208.996048 202.925339,208.639572 
	C199.441803,203.808929 199.258331,199.022293 201.453476,194.004517 
M208.507080,199.194077 
	C209.351410,201.253265 209.919357,203.512848 211.188812,205.263824 
	C211.637833,205.883118 214.119446,205.754242 215.112762,205.106995 
	C217.396667,203.618805 219.262192,201.527786 217.007401,198.588669 
	C214.379089,195.162689 211.650543,195.209885 208.507080,199.194077 
z"/>
<path fill="#3C395F" opacity="1.000000" stroke="none" 
	d="
M208.559662,166.083496 
	C208.630051,169.454437 208.300369,172.742706 207.977356,176.414001 
	C204.609940,176.531464 201.235870,176.265884 197.426346,176.069122 
	C188.551620,175.319321 182.342163,179.952866 176.171082,185.308075 
	C176.018692,174.986649 182.514008,167.570602 192.755951,165.809280 
	C194.864563,165.446671 197.017746,165.343307 199.579071,165.042313 
	C202.725037,165.309723 205.442322,165.655273 208.559662,166.083496 
z"/>
<path fill="#39385F" opacity="1.000000" stroke="none" 
	d="
M301.584412,167.228210 
	C302.625793,170.579132 303.270294,173.915283 303.961456,177.632248 
	C295.252106,180.161942 286.496094,182.310822 277.680084,184.474426 
	C276.798615,175.812347 279.901062,171.464890 287.597534,169.953156 
	C292.131989,169.062515 296.657806,168.128143 301.584412,167.228210 
z"/>
<path fill="#FAEEE7" opacity="1.000000" stroke="none" 
	d="
M220.520477,210.956055 
	C224.298126,207.113342 226.235168,202.494141 224.958984,196.313934 
	C230.294876,199.248871 235.646622,202.645599 240.998367,206.042313 
	C240.927719,206.451889 240.857071,206.861465 240.786407,207.271027 
	C234.171234,208.499649 227.556061,209.728271 220.520477,210.956055 
z"/>
<path fill="#FDF1E9" opacity="1.000000" stroke="none" 
	d="
M295.141449,196.027969 
	C294.043427,201.637634 295.286102,206.466232 299.976685,210.613312 
	C293.222931,209.722733 286.305725,208.529953 277.848724,207.071671 
	C284.360382,202.832245 289.559204,199.447525 295.141449,196.027969 
z"/>
<path fill="#FCF0E9" opacity="1.000000" stroke="none" 
	d="
M316.602478,209.912064 
	C320.119110,205.392670 321.466278,200.377991 318.970673,194.243668 
	C324.030701,196.535233 329.171082,199.252945 334.311432,201.970673 
	C334.198792,202.655106 334.086121,203.339523 333.973480,204.023956 
	C328.305145,205.977341 322.636810,207.930725 316.602478,209.912064 
z"/>
<path fill="#FDF1E9" opacity="1.000000" stroke="none" 
	d="
M201.059784,193.997223 
	C199.258331,199.022293 199.441803,203.808929 202.958435,208.628006 
	C201.294739,208.696945 199.513565,208.420975 197.344070,208.137115 
	C193.526840,206.718216 190.097946,205.307205 185.626694,203.467255 
	C188.894806,200.939377 191.743149,198.736176 194.802719,196.277344 
	C196.897980,195.344437 198.782028,194.667175 201.059784,193.997223 
z"/>
<path fill="#FDF1E9" opacity="1.000000" stroke="none" 
	d="
M203.087814,209.160599 
	C203.283630,209.096008 203.573853,209.264175 203.942200,209.677002 
	C203.740952,209.745544 203.461594,209.569458 203.087814,209.160599 
z"/>
<path fill="#F8B98F" opacity="1.000000" stroke="none" 
	d="
M260.439758,331.169800 
	C253.424179,330.493011 246.734482,330.332336 240.335587,328.885498 
	C230.138123,326.579773 223.028061,320.284943 219.559692,310.154907 
	C218.547943,307.199982 217.115021,304.389252 215.692841,301.089417 
	C219.840897,297.567200 224.351257,294.845245 230.638779,295.433289 
	C236.762314,300.769989 243.426956,304.360199 250.766891,302.323578 
	C258.275757,300.240051 265.102295,300.064301 272.444122,302.529114 
	C278.211304,304.465240 289.364685,299.762238 292.005249,295.095215 
	C295.960602,295.810852 299.915955,296.526489 304.095428,297.282715 
	C293.133331,324.884430 285.110291,331.021729 260.439758,331.169800 
M253.155457,322.262024 
	C257.458984,326.640808 262.716095,325.609985 267.466522,323.920013 
	C269.159027,323.317871 270.827423,319.655090 270.604156,317.595703 
	C270.421417,315.910156 267.633179,313.940186 265.595917,313.181793 
	C263.552856,312.421204 261.007874,312.947266 258.685608,313.010620 
	C253.185944,313.160645 251.323669,315.889038 253.155457,322.262024 
z"/>
<path fill="#F9AC6D" opacity="1.000000" stroke="none" 
	d="
M291.569672,295.013855 
	C289.364685,299.762238 278.211304,304.465240 272.444122,302.529114 
	C265.102295,300.064301 258.275757,300.240051 250.766891,302.323578 
	C243.426956,304.360199 236.762314,300.769989 231.046173,295.498901 
	C232.382599,295.083557 233.772476,295.010376 235.575409,294.870483 
	C243.232895,293.273132 250.448563,291.578430 257.737152,290.299438 
	C260.349884,289.840973 263.183777,290.102264 265.838776,290.524872 
	C274.290253,291.870117 282.705109,293.445801 291.569672,295.013855 
z"/>
<path fill="#36365F" opacity="1.000000" stroke="none" 
	d="
M311.977905,201.813538 
	C311.231110,205.519928 308.758087,206.902924 306.072906,205.606934 
	C304.534332,204.864334 303.154480,201.958084 303.296356,200.151031 
	C303.409241,198.713821 305.855225,196.479019 307.413147,196.347397 
	C310.339569,196.100189 312.349731,198.008377 311.977905,201.813538 
z"/>
<path fill="#36365F" opacity="1.000000" stroke="none" 
	d="
M208.737778,198.888672 
	C211.650543,195.209885 214.379089,195.162689 217.007401,198.588669 
	C219.262192,201.527786 217.396667,203.618805 215.112762,205.106995 
	C214.119446,205.754242 211.637833,205.883118 211.188812,205.263824 
	C209.919357,203.512848 209.351410,201.253265 208.737778,198.888672 
z"/>
<path fill="#FCAD6E" opacity="1.000000" stroke="none" 
	d="
M252.975861,321.904694 
	C251.323669,315.889038 253.185944,313.160645 258.685608,313.010620 
	C261.007874,312.947266 263.552856,312.421204 265.595917,313.181793 
	C267.633179,313.940186 270.421417,315.910156 270.604156,317.595703 
	C270.827423,319.655090 269.159027,323.317871 267.466522,323.920013 
	C262.716095,325.609985 257.458984,326.640808 252.975861,321.904694 
z"/>
</svg>